<svg width="100" height="16" viewBox="0 0 100 16" fill="none" xmlns="http://www.w3.org/2000/svg">
<g id="Alekzo-Logo-White 1" clip-path="url(#clip0_2619_19)">
<g id="&#208;&#161;&#208;&#187;&#208;&#190;&#208;&#185; 1">
<g id="Group">
<path id="Vector" d="M9.26633 12.1519L7.10232 14.9262H0L9.20368 0L18.3668 14.9262H14.9668L9.18304 5.46825L5.10488 12.1519H9.26633Z" fill="white"/>
<path id="Vector_2" d="M32.3767 12.1518L30.2325 14.9261H19.9336V0.443604H23.2961V12.1518H32.3767Z" fill="white"/>
<path id="Vector_3" d="M50.437 0.443604V14.9261H53.8216V8.87116H57.6536L62.8594 14.9261H66.9553L60.206 7.43536L66.687 0.443604H62.9147L57.8201 6.21479H53.8245V0.443604H50.437Z" fill="white"/>
<path id="Vector_4" d="M70.0516 0.443604L67.9097 3.14714H76.6092L67.25 14.9261H79.9842L82.1674 12.1518H73.1133L82.4482 0.443604H70.0516Z" fill="white"/>
<path id="Vector_5" d="M41.391 15.0802L44.2368 11.4414C43.3074 12.0598 42.1119 12.3737 40.8058 12.3737C38.4384 12.3737 36.4306 11.3426 35.723 9.33705H45.8819L49.2606 5.0164C48.0858 1.84188 44.7447 0.2771 40.8058 0.2771C35.8874 0.2771 31.8999 2.80448 31.8999 7.68456C31.8999 12.5646 35.8874 15.092 40.8058 15.092C41.0026 15.092 41.1979 15.0876 41.3918 15.0795L41.391 15.0802ZM40.8051 2.94084C43.3767 2.94084 45.5252 4.11645 46.0412 6.50305H35.5727C36.0953 4.15257 38.2394 2.94084 40.8051 2.94084Z" fill="white"/>
<path id="Vector_6" d="M99.9999 5.61637C99.0402 2.03941 95.534 0.2771 91.3541 0.2771C86.4357 0.2771 82.4482 2.80448 82.4482 7.68456C82.4482 12.5646 86.4357 15.092 91.3541 15.092C91.7897 15.092 92.218 15.0721 92.6366 15.0323L99.9999 5.61563V5.61637ZM86.0001 7.65729C86.0001 4.54984 88.3978 2.94084 91.3549 2.94084C94.312 2.94084 96.7096 4.49456 96.7096 7.65729C96.7096 10.82 94.312 12.3737 91.3549 12.3737C88.3978 12.3737 86.0001 10.7647 86.0001 7.65729Z" fill="white"/>
</g>
</g>
</g>
<defs>
<clipPath id="clip0_2619_19">
<rect width="100" height="15.0928" fill="white"/>
</clipPath>
</defs>
</svg>
